<svg width="319" height="319" viewBox="0 0 319 319" fill="none" xmlns="http://www.w3.org/2000/svg">
<path d="M164.604 127.6C163.222 127.642 161.893 128.217 160.914 129.216L132.863 157.182L115.584 139.956C110.746 134.916 102.931 142.699 107.981 147.527L129.067 168.559C131.162 170.654 134.565 170.654 136.67 168.559L168.517 136.798C172.026 133.395 169.442 127.6 164.615 127.6H164.604ZM5.31667 170.133H37.2167C40.1621 170.133 42.5333 172.504 42.5333 175.45C42.5333 178.395 40.1621 180.766 37.2167 180.766H5.31667C2.37123 180.766 0 178.395 0 175.45C0 172.504 2.37123 170.133 5.31667 170.133ZM5.31667 127.6H37.2167C40.1621 127.6 42.5333 129.971 42.5333 132.916C42.5333 135.862 40.1621 138.233 37.2167 138.233H5.31667C2.37123 138.233 0 135.862 0 132.916C0 129.971 2.37123 127.6 5.31667 127.6ZM5.31667 85.0665H37.2167C40.1621 85.0665 42.5333 87.4377 42.5333 90.3831C42.5333 93.3286 40.1621 95.6998 37.2167 95.6998H5.31667C2.37123 95.6998 0 93.3286 0 90.3831C0 87.4377 2.37123 85.0665 5.31667 85.0665ZM260.517 202.033C245.896 202.033 233.933 213.996 233.933 228.616C233.933 243.237 245.896 255.2 260.517 255.2C275.137 255.2 287.1 243.237 287.1 228.616C287.1 213.996 275.137 202.033 260.517 202.033ZM260.517 212.666C269.385 212.666 276.467 219.748 276.467 228.616C276.467 237.485 269.385 244.566 260.517 244.566C251.648 244.566 244.567 237.485 244.567 228.616C244.567 219.748 251.648 212.666 260.517 212.666ZM122.283 202.033C107.662 202.033 95.7 213.996 95.7 228.616C95.7 243.237 107.662 255.2 122.283 255.2C136.904 255.2 148.867 243.237 148.867 228.616C148.867 213.996 136.904 202.033 122.283 202.033ZM122.283 212.666C131.152 212.666 138.233 219.748 138.233 228.616C138.233 237.485 131.152 244.566 122.283 244.566C113.415 244.566 106.333 237.485 106.333 228.616C106.333 219.748 113.415 212.666 122.283 212.666ZM69.1167 63.7998C60.3761 63.7998 53.1667 71.0092 53.1667 79.7498V196.716C53.1667 205.457 60.3761 212.666 69.1167 212.666H90.3833C97.5715 212.773 97.5715 201.927 90.3833 202.033H69.1167C66.0755 202.033 63.8 199.758 63.8 196.716V79.7498C63.8 76.7087 66.0755 74.4331 69.1167 74.4331H207.35C210.391 74.4331 212.667 76.7087 212.667 79.7498V202.033H154.183C147.165 202.033 147.293 212.773 154.183 212.666H228.617C235.635 212.666 235.571 202.033 228.617 202.033H223.3V106.333H268.247L308.367 169.027V196.716C308.367 199.758 306.091 202.033 303.05 202.033H292.417C285.462 202.033 285.462 212.666 292.417 212.666H303.05C311.791 212.666 319 205.457 319 196.716V167.475C319 166.465 318.713 165.454 318.171 164.604L275.637 98.1455C274.659 96.6249 272.979 95.6998 271.15 95.6998H223.3V79.7498C223.3 71.0092 216.091 63.7998 207.35 63.7998H69.1167Z" fill="#BCBCBC"/>
</svg>
