<?xml version="1.0" encoding="iso-8859-1"?>
<!-- Generator: Adobe Illustrator 19.0.0, SVG Export Plug-In . SVG Version: 6.00 Build 0)  -->
<svg xmlns="http://www.w3.org/2000/svg" xmlns:xlink="http://www.w3.org/1999/xlink" version="1.1" id="Layer_1" x="0px" y="0px" viewBox="0 0 512 512" style="enable-background:new 0 0 512 512;" xml:space="preserve" width="512" height="512">
<g>
	<path d="M406.5,98.787L307.713,0H15.5v512h391v-92h90v-90h-90V98.787z M316.5,51.213L355.287,90H316.5V51.213z M376.5,482h-331V30   h241v90h90v210H206.959l-90,45l90,45H376.5V482z M214.041,390l-30-15l30-15H225.5v30H214.041z M255.5,360h151v30h-151V360z    M466.5,390h-30v-30h30V390z"/>
	<rect x="75.5" y="150" width="30" height="30"/>
	<rect x="135.5" y="150" width="211" height="30"/>
	<rect x="75.5" y="210" width="30" height="30"/>
	<rect x="135.5" y="210" width="211" height="30"/>
	<rect x="75.5" y="270" width="30" height="30"/>
	<rect x="135.5" y="270" width="211" height="30"/>
</g>















</svg>
