<svg width="128" height="128" viewBox="0 0 128 128" fill="none" xmlns="http://www.w3.org/2000/svg">
<path d="M44 118C45.6569 118 47 116.657 47 115C47 113.343 45.6569 112 44 112C42.3431 112 41 113.343 41 115C41 116.657 42.3431 118 44 118Z" fill="#BCBCBC"/>
<path d="M71 28.9999C71 19.3999 65.8 10.3999 57.5 5.5999L57 5.3999H53.5V28.0999C47.9 32.3999 40.1 32.3999 34.5 28.0999V5.3999H31L30.5 5.6999C22.2 10.3999 17 19.3999 17 28.9999C17 29.3999 17 29.8999 17 30.2999C17 30.4999 17 30.5999 17 30.7999C17 31.0999 17 31.2999 17.1 31.5999C17.1 31.7999 17.1 31.9999 17.2 32.1999C17.2 32.3999 17.3 32.6999 17.3 32.8999C17.3 33.0999 17.4 33.2999 17.4 33.5999C17.4 33.7999 17.5 33.9999 17.5 34.1999C17.5 34.3999 17.6 34.6999 17.7 34.8999C17.7 35.0999 17.8 35.2999 17.8 35.4999C17.9 35.6999 17.9 35.9999 18 36.1999C18 36.3999 18.1 36.4999 18.1 36.6999C18.2 36.9999 18.3 37.1999 18.3 37.4999C18.4 37.5999 18.4 37.7999 18.5 37.8999C18.6 38.1999 18.7 38.4999 18.8 38.6999C18.8 38.7999 18.9 38.8999 18.9 38.9999C19 39.2999 19.2 39.5999 19.3 39.8999C19.3 39.9999 19.4 39.9999 19.4 40.0999C19.6 40.4999 19.7 40.7999 19.9 41.1999C21.3 43.8999 23.1 46.2999 25.3 48.3999L26.5 49.6999C30.3 53.5999 32.9 63.7999 32.9 70.4999V115C32.9 121.1 37.8 126 43.9 126C50 126 54.9 121.1 54.9 115V70.5999C54.9 63.8999 57.5 53.6999 61.3 49.7999L62.5 48.4999C64.7 46.3999 66.5 43.9999 67.9 41.2999C68.1 40.9999 68.3 40.5999 68.4 40.1999C68.4 40.0999 68.5 40.0999 68.5 39.9999C68.6 39.6999 68.8 39.3999 68.9 39.0999C68.9 38.9999 69 38.8999 69 38.7999C69.1 38.4999 69.2 38.2999 69.3 37.9999C69.4 37.8999 69.4 37.6999 69.5 37.5999C69.6 37.2999 69.7 37.0999 69.7 36.7999C69.8 36.5999 69.8 36.4999 69.8 36.2999C69.9 36.0999 69.9 35.7999 70 35.5999C70 35.3999 70.1 35.1999 70.1 34.9999C70.2 34.7999 70.2 34.4999 70.3 34.2999C70.3 34.0999 70.4 33.8999 70.4 33.6999C70.4 33.4999 70.5 33.2999 70.5 32.9999C70.5 32.7999 70.6 32.4999 70.6 32.2999C70.6 32.0999 70.7 31.8999 70.7 31.6999C70.7 31.3999 70.7 31.1999 70.8 30.8999C70.8 30.6999 70.8 30.5999 70.8 30.3999C71 29.8999 71 29.3999 71 28.9999ZM30.5 10.3999V29.8999L31.2 30.4999C34.9 33.6999 39.4 35.2999 44 35.2999C48.6 35.2999 53.1 33.6999 56.8 30.5999L57.5 29.9999V10.3999C63.4 14.6999 67 21.5999 67 28.9999C67 29.6999 67 30.3999 66.9 31.0999V31.1999C66.8 31.8999 66.7 32.5999 66.6 33.1999C66.6 33.2999 66.6 33.2999 66.6 33.3999C66.5 34.0999 66.3 34.6999 66.1 35.3999V35.4999C65.9 36.1999 65.7 36.7999 65.4 37.4999C65.4 37.4999 65.4 37.4999 65.4 37.5999C64.3 40.2999 62.7 42.6999 60.7 44.8999L59.8 45.7999C55.6 49.5999 50.1 51.9999 44 51.9999C37.9 51.9999 32.4 49.5999 28.3 45.6999L27.4 44.7999C25.4 42.6999 23.8 40.1999 22.7 37.4999C22.7 37.4999 22.7 37.4999 22.7 37.3999C22.4 36.7999 22.2 36.0999 22 35.3999V35.2999C21.8 34.6999 21.7 33.9999 21.5 33.2999C21.5 33.1999 21.5 33.1999 21.5 33.0999C21.4 32.3999 21.3 31.7999 21.2 31.0999V30.9999C21 30.3999 21 29.6999 21 28.9999C21 21.5999 24.6 14.6999 30.5 10.3999ZM51 70.5999V115C51 118.9 47.9 122 44 122C40.1 122 37 118.9 37 115V70.5999C37 66.2999 35.9 59.4999 33.6 53.8999C36.8 55.2999 40.3 55.9999 44 55.9999C47.7 55.9999 51.2 55.2999 54.4 53.8999C52.1 59.4999 51 66.3999 51 70.5999Z" fill="#BCBCBC"/>
<path d="M104.9 70.8L106 70.2V62H96V15.5C96.6 15.2 97.1 14.9 97.5 14.4C98.4 13.4 98.8 12.1 98.7 10.8L97.8 2H90.2L89.3 10.8C89.2 12.1 89.6 13.4 90.5 14.4C90.9 14.9 91.4 15.2 92 15.5V62H82V70.2L83.1 70.8C84.3 71.4 85.1 72.6 85.1 74C85.1 75.4 84.4 76.6 83.1 77.2L82 77.8V114C82 120.6 87.4 126 94 126C100.6 126 106 120.6 106 114V77.8L104.9 77.2C103.7 76.6 102.9 75.4 102.9 74C102.9 72.6 103.7 71.4 104.9 70.8ZM93.8 6H94.2L94.7 11.2C94.7 11.5 94.6 11.7 94.5 11.8C94.4 11.9 94.3 12 94 12C93.7 12 93.5 11.9 93.5 11.8C93.5 11.7 93.3 11.5 93.3 11.2L93.8 6ZM86 67.9V66H102V67.9C100.1 69.3 98.9 71.6 98.9 74C98.9 76.5 100.1 78.7 102 80.1V112H86V80.1C87.9 78.7 89.1 76.4 89.1 74C89.1 71.5 87.9 69.3 86 67.9ZM94 122C90.3 122 87.2 119.4 86.3 116H101.8C100.8 119.4 97.7 122 94 122Z" fill="#BCBCBC"/>
</svg>
