<svg width="215" height="211" viewBox="0 0 215 211" fill="none" xmlns="http://www.w3.org/2000/svg">
<path d="M36.0921 138.061H81.1455C82.5312 138.061 83.7322 137.109 84.022 135.778C91.6813 100.563 122.634 75.0121 159.293 73.6398C160.914 73.578 162.182 72.2386 162.119 70.6479C162.056 69.0572 160.683 67.8208 159.07 67.8744C139.96 68.5873 121.391 75.6921 106.773 87.8782C92.9369 99.4173 83.0646 115.114 78.8065 132.291H39.506C43.6927 107.033 55.6898 84.1074 74.3428 65.8097C97.8584 42.7275 129.126 30.018 162.392 30.018H171.513V70.7015C171.513 72.2963 172.827 73.5862 174.452 73.5862C176.077 73.5862 177.392 72.2963 177.392 70.7015V27.1292C177.392 25.5343 176.077 24.2444 174.452 24.2444H162.392C127.555 24.2444 94.8098 37.5555 70.1856 61.7257C49.8151 81.713 37.0201 106.975 33.1862 134.789C33.0728 135.613 33.329 136.445 33.8875 137.072C34.4376 137.698 35.2439 138.061 36.0921 138.061Z" fill="#BCBCBC"/>
<path d="M178.744 87.0581H201.012C205.069 87.0581 208.248 84.5525 208.248 81.3504V12.1655C208.248 8.96339 205.069 6.45776 201.012 6.45776H178.744C174.687 6.45776 171.509 8.96339 171.509 12.1655V81.3504C171.504 84.5525 174.683 87.0581 178.744 87.0581ZM202.369 80.9795C202.133 81.1155 201.663 81.2886 201.012 81.2886H178.744C178.093 81.2886 177.618 81.1155 177.387 80.9795V12.5364C177.623 12.4004 178.093 12.2273 178.744 12.2273H201.012C201.663 12.2273 202.138 12.4004 202.369 12.5364V80.9795Z" fill="#BCBCBC"/>
<path d="M108.159 55.3133C108.625 55.3133 109.104 55.202 109.545 54.9712C121.223 48.839 133.829 44.8375 147.023 43.0778C148.631 42.8635 149.757 41.4087 149.538 39.8303C149.32 38.252 147.838 37.1475 146.229 37.3618C132.343 39.2163 119.069 43.428 106.773 49.8817C105.342 50.6317 104.804 52.3832 105.568 53.7844C106.093 54.7611 107.109 55.3133 108.159 55.3133Z" fill="#BCBCBC"/>
<path d="M12.9253 163.62H102.675C106.081 163.62 108.856 160.9 108.856 157.562V138.349C108.856 135.007 106.085 132.291 102.675 132.291H12.9253C9.51971 132.291 6.75243 135.011 6.75243 138.349V157.562C6.75243 160.9 9.52391 163.62 12.9253 163.62ZM102.675 138.061C102.839 138.061 102.978 138.193 102.978 138.349V157.562C102.978 157.723 102.847 157.85 102.675 157.85H12.9253C12.7615 157.85 12.6313 157.718 12.6313 157.562V138.349C12.6313 138.189 12.7657 138.061 12.9253 138.061H102.675Z" fill="#BCBCBC"/>
<path d="M23.1545 204.538H92.4458C94.0709 204.538 95.3853 203.248 95.3853 201.653V160.735C95.3853 159.14 94.0709 157.85 92.4458 157.85H23.1545C21.5294 157.85 20.2151 159.14 20.2151 160.735V169.258C20.2151 170.852 21.5294 172.142 23.1545 172.142C24.7796 172.142 26.094 170.852 26.094 169.258V163.62H89.5063V198.769H26.094V192.447C26.094 190.852 24.7796 189.562 23.1545 189.562C21.5294 189.562 20.2151 190.852 20.2151 192.447V201.653C20.2151 203.248 21.5336 204.538 23.1545 204.538Z" fill="#BCBCBC"/>
<path d="M23.1543 184.077C23.3475 184.077 23.5406 184.061 23.7296 184.023C23.9186 183.986 24.1033 183.929 24.2797 183.859C24.4561 183.784 24.6282 183.698 24.7878 183.595C24.9474 183.488 25.0985 183.368 25.2329 183.236C25.3715 183.1 25.4933 182.952 25.5982 182.795C25.7074 182.639 25.7956 182.474 25.8712 182.297C25.9426 182.124 26.0014 181.942 26.0392 181.757C26.077 181.571 26.0938 181.382 26.0938 181.196C26.0938 181.007 26.077 180.817 26.0392 180.632C26.0014 180.446 25.9426 180.265 25.8712 180.092C25.7956 179.919 25.7074 179.75 25.5982 179.593C25.4933 179.437 25.3715 179.288 25.2329 179.156C25.0985 179.02 24.9474 178.901 24.7878 178.798C24.6282 178.691 24.4561 178.604 24.2797 178.53C24.1033 178.46 23.9186 178.402 23.7296 178.365C23.3517 178.291 22.9611 178.291 22.5832 178.365C22.3942 178.402 22.2095 178.46 22.0331 178.53C21.8525 178.604 21.6846 178.691 21.525 178.798C21.3612 178.901 21.2143 179.02 21.0757 179.156C20.9413 179.288 20.8195 179.437 20.7103 179.593C20.6054 179.75 20.5172 179.919 20.4416 180.092C20.366 180.265 20.3114 180.446 20.2736 180.632C20.2358 180.817 20.2148 181.007 20.2148 181.196C20.2148 181.382 20.2358 181.571 20.2736 181.757C20.3114 181.942 20.366 182.124 20.4416 182.297C20.5172 182.474 20.6054 182.639 20.7103 182.795C20.8195 182.952 20.9413 183.1 21.0757 183.236C21.2143 183.368 21.3654 183.488 21.525 183.595C21.6846 183.698 21.8525 183.784 22.0331 183.859C22.2095 183.929 22.3942 183.986 22.5832 184.023C22.7722 184.061 22.9653 184.077 23.1543 184.077Z" fill="#BCBCBC"/>
<path d="M92.0425 149.814C92.2356 149.814 92.4288 149.798 92.6178 149.761C92.8025 149.724 92.9873 149.666 93.1679 149.596C93.3442 149.522 93.5164 149.431 93.676 149.328C93.8355 149.225 93.9867 149.101 94.1211 148.969C94.2555 148.838 94.3772 148.689 94.4864 148.533C94.5914 148.376 94.6838 148.207 94.7552 148.034C94.8308 147.861 94.8853 147.679 94.9231 147.494C94.9609 147.309 94.9819 147.119 94.9819 146.929C94.9819 146.744 94.9609 146.554 94.9231 146.365C94.8853 146.184 94.8308 146.002 94.7552 145.825C94.6838 145.652 94.5914 145.483 94.4864 145.33C94.3772 145.17 94.2555 145.021 94.1211 144.889C93.5752 144.354 92.8151 144.045 92.0425 144.045C91.2698 144.045 90.5098 144.354 89.9639 144.889C89.418 145.429 89.103 146.171 89.103 146.929C89.103 147.119 89.124 147.309 89.1618 147.494C89.1996 147.679 89.2542 147.861 89.3298 148.034C89.4012 148.207 89.4936 148.376 89.5985 148.533C89.7077 148.689 89.8295 148.838 89.9639 148.969C90.0982 149.101 90.2494 149.225 90.409 149.328C90.5685 149.431 90.7407 149.522 90.9171 149.596C91.0977 149.666 91.2824 149.724 91.4672 149.761C91.6562 149.798 91.8493 149.814 92.0425 149.814Z" fill="#BCBCBC"/>
<path d="M78.3489 149.814C78.5379 149.814 78.7311 149.798 78.92 149.76C79.109 149.723 79.2937 149.666 79.4701 149.596C79.6507 149.521 79.8186 149.431 79.9782 149.328C80.1378 149.225 80.289 149.101 80.4275 148.969C80.5619 148.837 80.6837 148.689 80.7929 148.532C80.8978 148.376 80.986 148.207 81.0616 148.034C81.133 147.861 81.1918 147.679 81.2296 147.494C81.2674 147.308 81.2842 147.119 81.2842 146.929C81.2842 146.744 81.2674 146.554 81.2296 146.365C81.1918 146.183 81.133 146.002 81.0616 145.825C80.986 145.652 80.8978 145.483 80.7929 145.33C80.6837 145.17 80.5619 145.021 80.4275 144.889C80.289 144.758 80.1378 144.638 79.9782 144.531C79.8186 144.428 79.6507 144.337 79.4701 144.267C79.2937 144.193 79.109 144.139 78.92 144.102C78.5421 144.028 78.1516 144.028 77.7736 144.102C77.5847 144.139 77.3999 144.193 77.2235 144.267C77.0472 144.337 76.875 144.428 76.7154 144.531C76.5559 144.638 76.4047 144.758 76.2703 144.889C76.1317 145.021 76.01 145.17 75.905 145.33C75.7958 145.483 75.7076 145.652 75.632 145.825C75.5606 146.002 75.5019 146.183 75.4641 146.365C75.4263 146.554 75.4095 146.744 75.4095 146.929C75.4095 147.119 75.4263 147.308 75.4641 147.494C75.5019 147.679 75.5606 147.861 75.632 148.034C75.7076 148.207 75.7958 148.376 75.905 148.532C76.01 148.689 76.1317 148.837 76.2703 148.969C76.4047 149.101 76.5559 149.225 76.7154 149.328C76.875 149.431 77.0472 149.521 77.2235 149.596C77.3999 149.666 77.5847 149.723 77.7736 149.76C77.9626 149.798 78.1558 149.814 78.3489 149.814Z" fill="#BCBCBC"/>
<path d="M64.6509 149.814C65.4235 149.814 66.1836 149.505 66.7295 148.969C66.8639 148.837 66.9898 148.689 67.0948 148.532C67.1998 148.376 67.2922 148.207 67.3636 148.034C67.4392 147.861 67.4938 147.679 67.5315 147.494C67.5693 147.308 67.5903 147.119 67.5903 146.929C67.5903 146.744 67.5693 146.554 67.5315 146.365C67.4938 146.183 67.4392 146.002 67.3636 145.825C67.2922 145.652 67.1998 145.483 67.0948 145.33C66.9898 145.17 66.8639 145.021 66.7295 144.889C66.5951 144.758 66.444 144.638 66.2844 144.531C66.1248 144.428 65.9526 144.337 65.7763 144.267C65.5999 144.193 65.4151 144.139 65.2262 144.102C64.8482 144.028 64.4577 144.028 64.0756 144.102C63.8908 144.139 63.7061 144.193 63.5255 144.267C63.3491 144.337 63.177 144.428 63.0216 144.531C62.8578 144.638 62.7066 144.758 62.5723 144.889C62.4379 145.021 62.3161 145.17 62.2069 145.33C62.102 145.483 62.0096 145.652 61.9382 145.825C61.8626 146.002 61.808 146.183 61.7702 146.365C61.7324 146.554 61.7114 146.744 61.7114 146.929C61.7114 147.119 61.7324 147.308 61.7702 147.494C61.808 147.679 61.8626 147.861 61.9382 148.034C62.0096 148.207 62.102 148.376 62.2069 148.532C62.3161 148.689 62.4379 148.837 62.5723 148.969C63.1182 149.505 63.8782 149.814 64.6509 149.814Z" fill="#BCBCBC"/>
<path d="M50.9575 149.814C51.1465 149.814 51.3396 149.798 51.5286 149.76C51.7176 149.723 51.9023 149.666 52.0787 149.596C52.2593 149.521 52.4272 149.431 52.5868 149.328C52.7506 149.225 52.8976 149.101 53.0361 148.969C53.1705 148.837 53.2923 148.689 53.4015 148.532C53.5064 148.376 53.5988 148.207 53.6702 148.034C53.7416 147.861 53.8004 147.679 53.8382 147.494C53.876 147.308 53.897 147.119 53.897 146.929C53.897 146.744 53.876 146.554 53.8382 146.365C53.8004 146.183 53.7416 146.002 53.6702 145.825C53.5946 145.652 53.5064 145.483 53.4015 145.33C53.2923 145.17 53.1705 145.021 53.0361 144.889C52.8976 144.758 52.7506 144.638 52.5868 144.531C52.4272 144.428 52.2593 144.337 52.0787 144.267C51.9023 144.193 51.7176 144.139 51.5286 144.102C51.1507 144.028 50.7602 144.028 50.3822 144.102C50.1933 144.139 50.0085 144.193 49.8321 144.267C49.6558 144.337 49.4836 144.428 49.324 144.531C49.1644 144.638 49.0133 144.758 48.8789 144.889C48.7403 145.021 48.6186 145.17 48.5136 145.33C48.4044 145.483 48.3162 145.652 48.2406 145.825C48.1692 146.002 48.1105 146.183 48.0727 146.365C48.0349 146.554 48.0181 146.744 48.0181 146.929C48.0181 147.119 48.0349 147.308 48.0727 147.494C48.1105 147.679 48.1692 147.861 48.2406 148.034C48.3162 148.207 48.4044 148.376 48.5136 148.532C48.6186 148.689 48.7403 148.837 48.8789 148.969C49.0133 149.101 49.1644 149.225 49.324 149.328C49.4836 149.431 49.6558 149.521 49.8321 149.596C50.0085 149.666 50.1933 149.723 50.3822 149.76C50.5712 149.798 50.7644 149.814 50.9575 149.814Z" fill="#BCBCBC"/>
<path d="M37.2593 149.814C37.4524 149.814 37.6456 149.798 37.8346 149.761C38.0235 149.724 38.2083 149.666 38.3847 149.596C38.561 149.522 38.7332 149.431 38.8928 149.328C39.0523 149.225 39.2035 149.101 39.3379 148.969C39.4723 148.838 39.5982 148.689 39.7032 148.533C39.8082 148.376 39.9006 148.207 39.9762 148.034C40.0476 147.861 40.1021 147.68 40.1399 147.494C40.1819 147.309 40.1987 147.119 40.1987 146.929C40.1987 146.744 40.1819 146.554 40.1399 146.365C40.1021 146.184 40.0476 146.002 39.9762 145.825C39.9006 145.652 39.8082 145.483 39.7032 145.33C39.5982 145.17 39.4723 145.021 39.3379 144.89C39.2035 144.758 39.0523 144.638 38.8928 144.531C38.7332 144.428 38.561 144.337 38.3847 144.267C38.2083 144.193 38.0235 144.14 37.8346 144.102C36.8771 143.913 35.8651 144.222 35.1807 144.89C34.6348 145.429 34.3198 146.171 34.3198 146.929C34.3198 147.119 34.3408 147.309 34.3786 147.494C34.4164 147.68 34.471 147.861 34.5466 148.034C34.618 148.207 34.7103 148.376 34.8153 148.533C34.9245 148.689 35.0463 148.838 35.1807 148.969C35.3192 149.101 35.4662 149.225 35.63 149.328C35.7895 149.431 35.9575 149.522 36.1339 149.596C36.3144 149.666 36.4992 149.724 36.684 149.761C36.8729 149.798 37.0661 149.814 37.2593 149.814Z" fill="#BCBCBC"/>
<path d="M23.5659 149.814C24.3386 149.814 25.0944 149.505 25.6445 148.969C25.7789 148.838 25.9007 148.689 26.0099 148.533C26.1148 148.376 26.2072 148.207 26.2786 148.034C26.3542 147.861 26.4088 147.68 26.4466 147.494C26.4844 147.309 26.5054 147.119 26.5054 146.929C26.5054 146.744 26.4844 146.554 26.4466 146.365C26.4088 146.184 26.3542 146.002 26.2786 145.825C26.2072 145.652 26.1148 145.483 26.0099 145.33C25.9007 145.17 25.7789 145.021 25.6445 144.89C24.9601 144.222 23.9438 143.913 22.9906 144.102C22.8017 144.14 22.6169 144.193 22.4405 144.267C22.2642 144.337 22.092 144.428 21.9324 144.531C21.7729 144.638 21.6217 144.758 21.4873 144.89C21.3487 145.021 21.227 145.17 21.122 145.33C21.0128 145.483 20.9246 145.652 20.849 145.825C20.7776 146.002 20.7188 146.184 20.6811 146.365C20.6433 146.554 20.6265 146.744 20.6265 146.929C20.6265 147.119 20.6433 147.309 20.6811 147.494C20.7188 147.68 20.7776 147.861 20.849 148.034C20.9246 148.207 21.0128 148.376 21.122 148.533C21.227 148.689 21.3487 148.838 21.4873 148.969C21.6217 149.101 21.7729 149.225 21.9324 149.328C22.092 149.431 22.2642 149.522 22.4405 149.596C22.6169 149.666 22.8017 149.724 22.9906 149.761C23.1796 149.798 23.3728 149.814 23.5659 149.814Z" fill="#BCBCBC"/>
<path d="M189.876 31.5388C190.069 31.5388 190.262 31.5182 190.451 31.4811C190.64 31.444 190.825 31.3904 191.001 31.3162C191.178 31.2462 191.35 31.1555 191.509 31.0525C191.669 30.9453 191.82 30.8258 191.955 30.6939C192.5 30.1582 192.815 29.4123 192.815 28.654C192.815 28.4644 192.794 28.2749 192.757 28.0894C192.719 27.9081 192.664 27.7226 192.589 27.5495C192.517 27.3765 192.425 27.2075 192.32 27.0509C192.215 26.8943 192.089 26.7459 191.955 26.6141C191.82 26.4822 191.669 26.3585 191.509 26.2555C191.35 26.1525 191.178 26.0618 191.001 25.9918C190.825 25.9176 190.64 25.864 190.451 25.8269C189.494 25.6374 188.482 25.9423 187.797 26.6141C187.251 27.1498 186.937 27.8957 186.937 28.654C186.937 29.4123 187.251 30.1582 187.797 30.6939C188.343 31.2297 189.103 31.5388 189.876 31.5388Z" fill="#BCBCBC"/>
<path d="M189.876 49.6427C190.069 49.6427 190.262 49.6262 190.451 49.5891C190.64 49.552 190.825 49.4944 191.001 49.4243C191.178 49.3501 191.35 49.2594 191.509 49.1564C191.669 49.0534 191.82 48.9298 191.955 48.7979C192.5 48.2621 192.815 47.5162 192.815 46.7579C192.815 45.9997 192.5 45.2579 191.955 44.718C191.82 44.5861 191.669 44.4666 191.509 44.3595C191.35 44.2564 191.178 44.1658 191.001 44.0957C190.825 44.0215 190.64 43.968 190.451 43.9309C190.073 43.8567 189.683 43.8567 189.301 43.9309C189.116 43.968 188.931 44.0215 188.751 44.0957C188.574 44.1658 188.406 44.2564 188.247 44.3595C188.083 44.4666 187.932 44.5861 187.797 44.718C187.251 45.2579 186.937 45.9997 186.937 46.7579C186.937 47.5162 187.251 48.2621 187.797 48.7979C187.932 48.9298 188.083 49.0534 188.247 49.1564C188.406 49.2594 188.574 49.3501 188.751 49.4243C188.931 49.4944 189.116 49.552 189.301 49.5891C189.49 49.6262 189.683 49.6427 189.876 49.6427Z" fill="#BCBCBC"/>
<path d="M189.876 67.7507C190.069 67.7507 190.262 67.7301 190.451 67.693C190.64 67.656 190.825 67.5983 191.001 67.5282C191.178 67.454 191.35 67.3675 191.509 67.2644C191.669 67.1573 191.82 67.0378 191.955 66.9059C192.5 66.3661 192.815 65.6243 192.815 64.866C192.815 64.1036 192.5 63.3618 191.955 62.826C191.409 62.2862 190.649 61.9812 189.876 61.9812C189.103 61.9812 188.347 62.2862 187.797 62.826C187.663 62.9579 187.541 63.1063 187.432 63.2629C187.327 63.4195 187.235 63.5884 187.163 63.7615C187.088 63.9346 187.033 64.1159 186.995 64.3014C186.958 64.4868 186.937 64.6764 186.937 64.866C186.937 65.0514 186.958 65.241 186.995 65.4264C187.033 65.6119 187.088 65.7932 187.163 65.9663C187.235 66.1435 187.327 66.3084 187.432 66.465C187.541 66.6257 187.663 66.7699 187.797 66.9059C187.932 67.0378 188.083 67.1573 188.247 67.2644C188.406 67.3675 188.574 67.454 188.751 67.5282C188.931 67.5983 189.116 67.656 189.301 67.693C189.494 67.7301 189.687 67.7507 189.876 67.7507Z" fill="#BCBCBC"/>
</svg>
