<svg width="201" height="201" viewBox="0 0 201 201" fill="none" xmlns="http://www.w3.org/2000/svg">
<path d="M172.106 61.0852L185.454 47.7375L153.262 15.5461L139.915 28.8937C134.576 25.9102 129.08 23.7117 123.27 21.9844V3.14062H77.7305V21.9844C71.9203 23.7117 66.4242 25.9102 61.0852 28.8937L47.7375 15.5461L15.5461 47.7375L28.8937 61.0852C25.9102 66.4242 23.7117 71.9203 21.9844 77.7305H3.14062V123.27H21.9844C23.7117 129.08 25.9102 134.576 28.8937 139.915L15.5461 153.262L47.7375 185.454L61.0852 172.106C66.4242 175.09 71.9203 177.288 77.7305 179.016V197.859H123.27V179.016C129.08 177.288 134.576 175.09 139.915 172.106L153.262 185.454L185.454 153.262L172.106 139.915C175.09 134.576 177.288 129.08 179.016 123.27H197.859V77.7305H179.016C177.288 71.9203 174.933 66.4242 172.106 61.0852ZM191.578 116.988H174.148L173.52 119.344C171.792 126.096 169.123 132.691 165.511 138.816L164.255 140.857L176.66 153.262L153.42 176.503L141.014 164.098L138.973 165.354C132.848 168.966 126.253 171.635 119.501 173.363L117.145 173.991V191.578H84.1687V174.148L81.8133 173.52C75.0609 171.792 68.4656 169.123 62.3414 165.511L60.3 164.255L47.8945 176.66L24.4969 153.262L36.9023 140.857L35.6461 138.816C32.0344 132.691 29.3648 126.096 27.6375 119.344L27.0094 116.988H9.42188V84.0117H26.8523L27.4805 81.6562C29.2078 74.9039 31.8773 68.3086 35.4891 62.1844L36.7453 60.143L24.3398 47.7375L47.5805 24.4969L59.9859 36.9023L62.0273 35.6461C68.1516 32.0344 74.7469 29.3648 81.4992 27.6375L83.8547 27.0094V9.42188H116.831V26.8523L119.187 27.4805C125.939 29.2078 132.534 31.8773 138.659 35.4891L140.7 36.7453L153.105 24.3398L176.346 47.5805L163.941 59.9859L165.197 62.0273C168.809 68.1516 171.478 74.7469 173.205 81.4992L173.834 83.8547H191.578V116.988Z" fill="#BCBCBC"/>
<path d="M100.5 50.25C72.8625 50.25 50.25 72.8625 50.25 100.5C50.25 128.137 72.8625 150.75 100.5 150.75C128.137 150.75 150.75 128.137 150.75 100.5C150.75 72.8625 128.137 50.25 100.5 50.25ZM100.5 144.469C76.3172 144.469 56.5312 124.683 56.5312 100.5C56.5312 76.3172 76.3172 56.5312 100.5 56.5312C124.683 56.5312 144.469 76.3172 144.469 100.5C144.469 124.683 124.683 144.469 100.5 144.469Z" fill="#BCBCBC"/>
<path d="M100.343 96.5741C97.6733 95.3179 95.4749 94.2187 95.4749 90.921C95.4749 88.2515 97.8304 85.896 100.5 85.896C102.07 85.896 103.955 86.6812 104.897 88.5655L110.707 85.739C109.451 82.7554 106.624 80.714 103.641 79.9288V77.2593H97.3593V79.9288C92.4913 81.3421 89.0366 85.5819 89.0366 91.2351C89.0366 97.9874 93.4335 100.5 99.2437 103.012C102.227 104.269 105.682 105.839 105.682 109.922C105.682 112.748 103.169 115.418 100.343 115.418C97.5163 115.418 95.789 114.005 94.6897 111.963C92.8054 112.591 90.921 113.219 89.1936 113.691C90.1358 117.302 93.2765 120.443 97.5163 121.385V124.526H103.798V121.385C108.508 119.972 112.12 115.418 112.12 110.079C111.963 102.855 108.508 100.186 100.343 96.5741Z" fill="#BCBCBC"/>
</svg>
