<svg width="201" height="197" viewBox="0 0 201 197" fill="none" xmlns="http://www.w3.org/2000/svg">
<path d="M100.5 3.07275H77.7305V21.5056C71.9203 23.1952 66.4242 25.3457 61.0852 28.2643L47.7375 15.2077L15.5461 46.6971L28.8937 59.7537C25.9102 64.9763 23.7117 70.3525 21.9844 76.036H3.14062V120.582H21.9844C23.7117 126.265 25.9102 131.642 28.8937 136.864L15.5461 149.921L47.7375 181.41L61.0852 168.354C66.4242 171.272 71.9203 173.423 77.7305 175.112V193.545H100.5C154.205 193.545 197.859 150.842 197.859 98.309C197.859 45.7754 154.205 3.07275 100.5 3.07275ZM100.5 187.401H84.0117V170.351L81.6562 169.736C74.9039 168.046 68.3086 165.435 62.1844 161.902L60.143 160.673L47.7375 172.808L24.4969 149.921L36.9023 137.786L35.6461 135.789C32.0344 129.798 29.3648 123.347 27.6375 116.742L27.0094 114.438H9.42188V82.1802H26.8523L27.4805 79.8761C29.2078 73.2711 31.8773 66.8196 35.4891 60.8289L36.7453 58.832L24.3398 46.6971L47.5805 23.9633L59.9859 36.0982L62.0273 34.8694C68.1516 31.3364 74.7469 28.7251 81.4992 27.0354L83.8547 26.421V9.21703H100.5C150.75 9.21703 191.578 49.1548 191.578 98.309C191.578 147.463 150.75 187.401 100.5 187.401Z" fill="#BCBCBC"/>
<path d="M143.841 51.6121L100.5 94.0075L91.5492 85.2519L87.1523 89.5529L96.1031 98.3085L87.1523 107.064L91.5492 111.365L100.5 102.61L127.195 128.723L131.592 124.422L104.897 98.3085L148.238 55.9131L143.841 51.6121Z" fill="#BCBCBC"/>
<path d="M100.5 141.318C76.3172 141.318 56.5312 121.964 56.5312 98.3085C56.5312 74.653 76.3172 55.2986 100.5 55.2986V49.1543C72.8625 49.1543 50.25 71.2737 50.25 98.3085C50.25 125.343 72.8625 147.463 100.5 147.463V141.318Z" fill="#BCBCBC"/>
<path d="M103.641 34.2544H97.3594V39.3243H103.641V34.2544Z" fill="#BCBCBC"/>
<path d="M165.825 95.2363H160.643V101.381H165.825V95.2363Z" fill="#BCBCBC"/>
<path d="M103.641 157.14H97.3594V162.21H103.641V157.14Z" fill="#BCBCBC"/>
</svg>
