<svg width="196" height="203" viewBox="0 0 196 203" fill="none" xmlns="http://www.w3.org/2000/svg">
<g clip-path="url(#clip0)">
<path d="M147.955 137.345L147.955 70.1919L54.2237 70.1919L54.2237 137.345L147.955 137.345Z" fill="#616161"/>
<path d="M141.732 80.6024L141.732 74.8882L54.324 74.8882L54.324 80.6024L141.732 80.6024Z" fill="#BCBCBC"/>
<path d="M141.732 97.0255L141.732 86.8257L54.324 86.8257L54.324 97.0255L141.732 97.0255Z" fill="#BCBCBC"/>
<path opacity="0.62" d="M141.732 103.488L141.732 100.035L54.324 100.035L54.324 103.488L141.732 103.488Z" fill="#BCBCBC"/>
<path opacity="0.62" d="M141.732 135.186L141.732 131.732L54.324 131.732L54.324 135.186L141.732 135.186Z" fill="#BCBCBC"/>
<path d="M196 146.069L196 60.6606L147.064 60.6606L147.064 146.069L196 146.069Z" fill="#616161"/>
<path d="M192.75 73.9067L192.75 66.6367L147.131 66.6367L147.131 73.9067L192.75 73.9067Z" fill="#BCBCBC"/>
<path d="M192.75 94.7933L192.75 81.8164L147.131 81.8164L147.131 94.7933L192.75 94.7933Z" fill="#BCBCBC"/>
<path opacity="0.62" d="M192.75 103.009L192.75 98.6177L147.131 98.6177L147.131 103.009L192.75 103.009Z" fill="#BCBCBC"/>
<path opacity="0.62" d="M192.75 144.193L192.75 139.802L147.131 139.802L147.131 144.193L192.75 144.193Z" fill="#BCBCBC"/>
<path d="M147.142 69.9956L141.598 70.0974L141.443 137.287L147.142 137.388L147.142 69.9956Z" fill="#404040"/>
</g>
<defs>
<clipPath id="clip0">
<rect x="196" width="203" height="196" transform="rotate(90 196 0)" fill="white"/>
</clipPath>
</defs>
</svg>
